<svg width="60" height="60" viewBox="0 0 60 60" fill="none" xmlns="http://www.w3.org/2000/svg">
<circle cx="30" cy="30" r="30" fill="#5B40FF"/>
<g clip-path="url(#clip0_9504_2089)">
<g clip-path="url(#clip1_9504_2089)">
<path d="M40.416 19.9452C38.4738 19.0365 36.3971 18.376 34.226 18C33.9594 18.4821 33.6479 19.1305 33.4331 19.6463C31.1251 19.2992 28.8384 19.2992 26.5729 19.6463C26.3582 19.1305 26.0396 18.4821 25.7705 18C23.5971 18.376 21.518 19.0389 19.5758 19.95C15.6584 25.8697 14.5964 31.6424 15.1274 37.3331C17.7257 39.2735 20.2437 40.4521 22.7192 41.2234C23.3304 40.3822 23.8755 39.488 24.3451 38.5456C23.4507 38.2057 22.5941 37.7863 21.7847 37.2994C21.9994 37.1403 22.2095 36.974 22.4124 36.8029C27.3493 39.112 32.7133 39.112 37.5912 36.8029C37.7965 36.974 38.0065 37.1403 38.2189 37.2994C37.4071 37.7887 36.5482 38.2081 35.6538 38.548C36.1234 39.488 36.6662 40.3846 37.2797 41.2258C39.7576 40.4545 42.278 39.2759 44.8762 37.3331C45.4992 30.7361 43.8119 25.0164 40.416 19.9452ZM25.0177 33.8334C23.5357 33.8334 22.3203 32.4499 22.3203 30.7651C22.3203 29.0802 23.5098 27.6943 25.0177 27.6943C26.5257 27.6943 27.741 29.0778 27.7151 30.7651C27.7174 32.4499 26.5257 33.8334 25.0177 33.8334ZM34.9859 33.8334C33.5039 33.8334 32.2885 32.4499 32.2885 30.7651C32.2885 29.0802 33.4779 27.6943 34.9859 27.6943C36.4939 27.6943 37.7092 29.0778 37.6833 30.7651C37.6833 32.4499 36.4939 33.8334 34.9859 33.8334Z" fill="white"/>
</g>
</g>
<defs>
<clipPath id="clip0_9504_2089">
<rect width="30" height="23.2258" fill="white" transform="translate(15 18)"/>
</clipPath>
<clipPath id="clip1_9504_2089">
<rect width="120" height="23.2258" fill="white" transform="translate(15 18)"/>
</clipPath>
</defs>
</svg>
