<svg width="60" height="60" viewBox="0 0 60 60" fill="none" xmlns="http://www.w3.org/2000/svg">
<rect width="60" height="60" rx="30" fill="#02C879"/>
<path fill-rule="evenodd" clip-rule="evenodd" d="M24.2508 16.9621C24.6737 16.3591 25.3641 16 26.1007 16H52L46.7599 22.9418C46.3329 23.5075 45.6653 23.84 44.9565 23.84H19.4273L24.2508 16.9621ZM17.7215 27.0232C18.1458 26.4312 18.8296 26.08 19.558 26.08H46.0669L40.6971 33.0406C40.2693 33.5952 39.6085 33.92 38.9081 33.92H12.7785L17.7215 27.0232ZM13.6734 36.16C12.9368 36.16 12.2464 36.5191 11.8235 37.1221L7 44H33.3202C34.0344 44 34.7066 43.6623 35.133 43.0892L40.2883 36.16H13.6734Z" fill="white"/>
</svg>
