<svg width="59" height="60" viewBox="0 0 59 60" fill="none" xmlns="http://www.w3.org/2000/svg">
<path d="M29.1634 0C13.0608 0 0 13.4354 0 30C0 46.5646 13.0608 60 29.1634 60C45.2901 60 58.3267 46.5646 58.3267 30C58.3509 13.4354 45.2901 0 29.1634 0ZM37.7579 43.0629C35.392 44.9255 32.3501 45.8692 28.6805 45.8692C25.0834 45.8692 22.2347 44.9503 20.1585 43.1374C18.0581 41.3245 17.0442 39.0149 17.0683 36.2583C17.0683 34.0728 17.5753 32.4089 18.5892 31.2666C19.6032 30.1242 20.9551 29.2798 22.5968 28.6838C24.2626 28.0877 26.0732 27.5911 28.0287 27.1192C29.9842 26.6473 31.5534 26.0762 32.7364 25.4801C33.9435 24.8841 34.5229 24.0397 34.5229 22.9967C34.5229 21.9536 34.0883 21.0844 33.2433 20.4139C32.3742 19.7434 31.1671 19.4205 29.5979 19.4205C28.0046 19.4205 26.725 19.793 25.7594 20.5132C24.7937 21.2334 24.2384 22.2517 24.0212 23.543H18.0823C18.4444 20.5877 19.6032 18.303 21.6311 16.6639C23.659 15.0248 26.2663 14.2301 29.5014 14.2301C33.0261 14.2301 35.7541 15.1242 37.7096 16.8626C39.6651 18.6258 40.6308 20.8361 40.6308 23.4685C40.6308 25.3808 40.0996 26.8957 39.0133 27.9884C37.9269 29.106 36.5991 29.9752 34.9574 30.5712C33.3399 31.1672 31.6983 31.6639 30.0566 32.0364C27.9563 32.4834 26.2905 32.9801 25.1075 33.5265C23.9004 34.0728 23.321 35.1159 23.321 36.6556C23.321 37.6987 23.7556 38.6424 24.6006 39.4619C25.4697 40.2566 26.8216 40.6788 28.7047 40.6788C30.6119 40.6788 32.157 40.1821 33.3399 39.1887C34.4987 38.1954 35.2471 37.0033 35.561 35.6374H41.8379C41.524 38.7417 40.1479 41.2003 37.7579 43.0629Z" fill="#D81D3C"/>
</svg>
