<svg width="61" height="60" viewBox="0 0 61 60" fill="none" xmlns="http://www.w3.org/2000/svg">
<circle cx="30.3262" cy="30" r="30" fill="#23D05F"/>
<g clip-path="url(#clip0_9504_2068)">
<path d="M30.3255 17.0429C23.1679 17.0429 17.3652 22.8453 17.3652 30.0029C17.3652 37.1608 23.1679 42.9629 30.3255 42.9629C37.4838 42.9629 43.2858 37.1608 43.2858 30.0029C43.2858 22.8458 37.4838 17.0435 30.3253 17.0435L30.3255 17.0429V17.0429ZM36.2689 35.735C36.0368 36.1157 35.5385 36.2364 35.1578 36.0027C32.1148 34.1441 28.2842 33.7231 23.7728 34.7538C23.3381 34.8529 22.9048 34.5805 22.8057 34.1456C22.7062 33.7107 22.9775 33.2774 23.4133 33.1783C28.3502 32.05 32.585 32.5361 36.0012 34.6238C36.3819 34.8575 36.5026 35.3543 36.2689 35.735V35.735ZM37.8552 32.2057C37.5627 32.6816 36.9406 32.8317 36.4655 32.5392C32.9818 30.3974 27.6715 29.7773 23.5509 31.0281C23.0165 31.1895 22.4521 30.8883 22.2899 30.3549C22.129 29.8205 22.4303 29.2571 22.9637 29.0946C27.6705 27.6665 33.5219 28.3583 37.5225 30.8167C37.9976 31.1092 38.1477 31.7313 37.8552 32.2058V32.2057ZM37.9914 28.531C33.8144 26.05 26.9229 25.8219 22.9348 27.0323C22.2944 27.2265 21.6172 26.865 21.4231 26.2246C21.229 25.5839 21.5902 24.9071 22.2311 24.7124C26.8091 23.3226 34.4195 23.5911 39.2286 26.446C39.8059 26.7879 39.9947 27.5318 39.6527 28.1071C39.3122 28.6831 38.5662 28.873 37.9921 28.531H37.9914Z" fill="white"/>
</g>
<defs>
<clipPath id="clip0_9504_2068">
<rect width="26" height="26" fill="white" transform="translate(17.3262 17)"/>
</clipPath>
</defs>
</svg>
