<svg width="43" height="47" viewBox="0 0 43 47" fill="none" xmlns="http://www.w3.org/2000/svg">
<path fill-rule="evenodd" clip-rule="evenodd" d="M14.8486 29.0189C11.5182 36.6449 7.50562 46.0143 7.50562 46.0143C7.50562 46.0143 7.80271 36.0653 10.3708 26.3576C10.9814 24.0496 12.0931 20.5579 14.0246 16.7463C10.6673 16.7977 4.90682 19.3411 1.91878 20.6604C0.741469 21.1802 -0.00543982 21.51 -0.00537109 21.4225C-0.00512622 21.1105 2.55754 15.7637 14.1253 12.2298C15.0536 11.9462 16.0923 11.7004 17.1968 11.4934C18.6194 9.48288 20.7937 6.66265 22.8953 4.8076C26.0898 1.98787 34.3142 -1.81493 38.8677 4.05811C38.8742 4.06654 38.7982 4.06166 38.6517 4.05226C37.5883 3.98402 32.8139 3.67761 29.0024 6.49992C26.2752 8.51935 25.2324 9.83882 24.7855 10.7048C28.3577 10.5954 31.6587 10.8585 33.4616 11.5204C39.9079 13.8871 41.9455 18.4009 42.6762 20.0195C42.772 20.2317 42.8453 20.3941 42.9031 20.4955C42.9674 20.608 43.0008 20.6601 42.998 20.662C42.9794 20.6755 41.306 18.3957 36.3511 17.0566C31.8149 15.8307 24.1398 16.1358 20.6527 16.2938C19.501 18.2134 18.1981 21.2458 16.5187 25.1542C16.0001 26.3612 15.4456 27.6518 14.8486 29.0189ZM29.438 39.0224C32.4189 39.0224 34.8353 36.5839 34.8353 33.5759C34.8353 30.5678 32.4189 28.1293 29.438 28.1293C26.4572 28.1293 24.0407 30.5678 24.0407 33.5759C24.0407 36.5839 26.4572 39.0224 29.438 39.0224Z" fill="#5329D7"/>
</svg>
