<svg width="60" height="60" viewBox="0 0 60 60" fill="none" xmlns="http://www.w3.org/2000/svg">
<circle cx="30" cy="30" r="30" fill="#1D9BF0"/>
<g clip-path="url(#clip0_9504_2086)">
<path d="M40.3743 25.1704C40.3894 25.3891 40.3894 25.6079 40.3894 25.8286C40.3894 32.5554 35.2684 40.3135 25.9045 40.3135V40.3095C23.1384 40.3135 20.4297 39.5212 18.1011 38.0272C18.5033 38.0756 18.9075 38.0998 19.3128 38.1008C21.6051 38.1028 23.8319 37.3337 25.6353 35.9173C23.4569 35.876 21.5466 34.4556 20.8793 32.3821C21.6424 32.5292 22.4287 32.499 23.1777 32.2943C20.8027 31.8145 19.094 29.7278 19.094 27.3044C19.094 27.2823 19.094 27.2611 19.094 27.2399C19.8017 27.6341 20.594 27.8528 21.4045 27.877C19.1676 26.3821 18.4781 23.4062 19.8289 21.0796C22.4136 24.2601 26.2271 26.1935 30.3208 26.3982C29.9105 24.63 30.471 22.7772 31.7936 21.5343C33.844 19.6068 37.0688 19.7056 38.9962 21.755C40.1364 21.5302 41.2291 21.1119 42.2291 20.5191C41.8491 21.6976 41.0537 22.6986 39.9912 23.3347C41.0003 23.2157 41.9862 22.9456 42.9146 22.5333C42.2311 23.5575 41.3702 24.4496 40.3743 25.1704Z" fill="white"/>
</g>
<defs>
<clipPath id="clip0_9504_2086">
<rect width="25" height="20.5645" fill="white" transform="translate(18 20)"/>
</clipPath>
</defs>
</svg>
