<svg width="60" height="60" viewBox="0 0 60 60" fill="none" xmlns="http://www.w3.org/2000/svg">
<circle cx="30" cy="30" r="30" fill="black"/>
<path fill-rule="evenodd" clip-rule="evenodd" d="M42.8695 27.2428C42.6511 27.264 42.4318 27.2751 42.2124 27.2761C39.8054 27.2764 37.5604 26.0632 36.2419 24.0494V35.037C36.2419 39.5221 32.606 43.158 28.121 43.158C23.6359 43.158 20 39.5221 20 35.037C20 30.552 23.6359 26.9161 28.121 26.9161C28.2905 26.9161 28.4562 26.9313 28.6229 26.9418V30.9437C28.4562 30.9237 28.2924 30.8932 28.121 30.8932C25.8319 30.8932 23.9762 32.7489 23.9762 35.038C23.9762 37.3271 25.8319 39.1828 28.121 39.1828C30.4105 39.1828 32.4324 37.3789 32.4324 35.0894L32.4724 16.4285H36.301C36.662 19.8617 39.4303 22.5434 42.8733 22.7951V27.2428" fill="white"/>
</svg>
